<svg width="350" height="350" viewBox="0 0 350 350" fill="none" xmlns="http://www.w3.org/2000/svg">
<path opacity="0.5" fill-rule="evenodd" clip-rule="evenodd" d="M350 175C350 271.65 271.65 350 175 350C78.3502 350 0 271.65 0 175C0 78.3502 78.3502 0 175 0C271.65 0 350 78.3502 350 175ZM198.25 110.282C198.25 88.035 180.215 70 157.968 70H148.75V108.625V158.5V162.25H166C199.126 162.25 225.983 189.095 226 222.218V222.25V232V232.002L226.1 232L270.25 232V183.782C270.25 162.107 253.131 144.431 231.676 143.536C248.094 130.657 264.115 111.501 264.621 85.4362L219.629 84.5638C219.476 92.4619 213.404 102.126 198.25 112.209V110.282ZM158.767 186.061H149.926V279.25H204.25V225.986C204.25 219.53 203.464 213.835 201.892 208.901C197.243 193.674 182.867 186.061 158.767 186.061ZM119.282 93.25C97.035 93.25 79 111.285 79 133.532V148.75V279.25H131.851H132.25V93.25H119.282Z" fill="white"/>
</svg>
